<?xml version="1.0" standalone="no"?>
<!DOCTYPE svg PUBLIC "-//W3C//DTD SVG 20010904//EN"
 "http://www.w3.org/TR/2001/REC-SVG-20010904/DTD/svg10.dtd">
<svg version="1.0" xmlns="http://www.w3.org/2000/svg"
 width="411.000000pt" height="362.000000pt" viewBox="0 0 411.000000 362.000000"
 preserveAspectRatio="xMidYMid meet">

<g transform="translate(0.000000,362.000000) scale(0.100000,-0.100000)"
fill="#000000" stroke="none">
<path d="M1970 2957 c-82 -26 -129 -111 -152 -270 -10 -66 -9 -80 3 -88 25
-16 55 -10 79 16 28 30 40 32 40 5 0 -14 -16 -28 -52 -46 -113 -57 -210 -187
-224 -300 -4 -27 -11 -55 -17 -61 -6 -9 -41 -13 -107 -13 l-98 0 -6 -32 c-3
-18 -10 -84 -16 -145 -17 -196 -30 -325 -40 -433 -24 -236 -30 -309 -36 -400
-6 -93 -5 -96 24 -141 20 -30 45 -53 74 -68 44 -21 52 -21 634 -21 l590 0 50
25 c92 46 110 99 93 280 -11 118 -17 176 -39 425 -11 124 -22 248 -24 275 -3
28 -8 86 -11 130 -4 44 -8 85 -10 92 -3 8 -38 13 -112 15 l-107 3 -11 60 c-23
131 -111 254 -217 306 l-43 21 3 97 c5 122 -9 174 -57 222 -54 54 -132 71
-211 46z m132 -27 c81 -23 127 -125 113 -255 -10 -88 -27 -85 -37 5 -6 47 -23
25 -26 -33 -4 -77 -26 -72 -30 7 -4 82 -26 68 -33 -22 -3 -39 -8 -74 -11 -78
-18 -17 -28 14 -28 82 0 57 -3 74 -14 74 -10 0 -16 -19 -21 -62 -9 -82 -13
-98 -31 -98 -11 0 -14 18 -14 84 0 47 -4 87 -9 91 -6 3 -28 -19 -51 -50 -38
-52 -70 -71 -70 -42 0 50 34 186 55 223 42 72 117 99 207 74z m162 -387 c105
-53 192 -176 203 -289 l6 -54 -391 0 c-215 0 -393 3 -395 8 -3 4 -1 32 5 61
19 105 84 201 177 260 56 36 67 38 74 11 5 -19 12 -20 78 -17 46 2 76 9 83 18
15 20 67 38 91 32 11 -3 42 -17 69 -30z m-614 -461 c0 -86 -3 -101 -20 -117
-41 -37 -16 -105 37 -105 61 0 85 71 38 109 -25 19 -26 23 -23 113 l3 93 395
0 395 0 3 -90 c3 -86 1 -92 -23 -115 -24 -23 -33 -63 -17 -86 15 -23 51 -35
72 -24 45 24 52 79 15 109 -25 19 -26 23 -23 113 l3 93 95 0 95 0 11 -105 c7
-58 17 -166 23 -240 18 -208 31 -353 45 -495 19 -194 17 -234 -18 -279 -51
-68 -32 -66 -676 -66 -635 0 -618 -2 -675 59 -28 30 -30 38 -31 109 -1 42 2
109 7 147 4 39 17 169 29 290 43 472 52 560 56 573 2 8 30 12 94 12 l90 0 0
-98z m48 -156 c5 -26 -26 -50 -45 -35 -14 12 -17 41 -6 53 13 13 48 1 51 -18z
m820 0 c5 -26 -26 -50 -45 -35 -14 12 -17 41 -6 53 13 13 48 1 51 -18z"/>
<path d="M304 721 c-46 -28 -64 -59 -64 -109 0 -67 41 -102 150 -131 47 -13
95 -29 108 -38 34 -21 26 -55 -18 -69 -32 -10 -35 -15 -38 -53 -3 -39 -2 -41
25 -41 45 1 110 35 127 69 9 16 16 48 16 70 0 60 -33 93 -122 121 -150 47
-158 51 -158 71 0 12 14 28 36 41 30 18 35 25 32 52 -3 26 -7 31 -33 34 -17 1
-44 -6 -61 -17z"/>
<path d="M440 702 c0 -31 5 -41 24 -50 14 -6 32 -23 42 -37 13 -20 25 -25 55
-25 36 0 39 2 39 29 0 53 -78 121 -140 121 -17 0 -20 -6 -20 -38z"/>
<path d="M744 726 c-3 -8 -4 -25 -2 -38 3 -23 4 -23 176 -26 l172 -2 0 40 0
40 -170 0 c-139 0 -172 -3 -176 -14z"/>
<path d="M1224 727 c-2 -7 -3 -107 -2 -222 l3 -210 43 -3 42 -3 0 225 0 226
-40 0 c-24 0 -43 -5 -46 -13z"/>
<path d="M1660 515 l0 -226 43 3 42 3 0 220 0 220 -42 3 -43 3 0 -226z"/>
<path d="M2094 726 c-3 -8 -4 -25 -2 -38 3 -23 4 -23 176 -26 l172 -2 0 40 0
40 -170 0 c-139 0 -172 -3 -176 -14z"/>
<path d="M2696 708 c-8 -18 -37 -86 -65 -151 -28 -65 -51 -125 -51 -133 0 -10
13 -14 44 -14 l44 0 43 100 c23 55 45 97 49 93 10 -12 90 -210 90 -222 0 -7
-49 -11 -145 -11 -142 0 -145 0 -161 -25 -8 -13 -14 -32 -12 -42 3 -17 19 -18
223 -18 213 0 220 1 222 20 2 11 -37 112 -85 225 l-87 205 -48 3 c-45 3 -48 2
-61 -30z"/>
<path d="M3138 715 c-47 -32 -58 -52 -58 -105 0 -64 42 -101 150 -129 99 -26
130 -44 130 -72 0 -15 -11 -25 -40 -36 -37 -15 -40 -19 -40 -55 0 -35 2 -38
28 -38 44 1 109 36 126 69 9 16 16 48 16 70 0 60 -33 93 -122 121 -150 47
-158 51 -158 71 0 12 14 28 36 41 30 18 35 25 32 52 -3 26 -7 31 -33 34 -19 2
-43 -6 -67 -23z"/>
<path d="M3280 702 c0 -31 5 -41 24 -50 14 -6 32 -23 42 -37 13 -20 24 -25 56
-25 l41 0 -6 36 c-10 59 -76 114 -137 114 -17 0 -20 -6 -20 -38z"/>
<path d="M3584 726 c-3 -8 -4 -25 -2 -38 3 -23 4 -23 171 -26 l167 -2 0 40 0
40 -165 0 c-134 0 -167 -3 -171 -14z"/>
<path d="M744 546 c-3 -8 -4 -27 -2 -43 l3 -28 155 0 155 0 0 40 0 40 -153 3
c-125 2 -153 0 -158 -12z"/>
<path d="M2094 546 c-3 -8 -4 -27 -2 -43 l3 -28 158 -3 158 -3 -3 43 -3 43
-153 3 c-125 2 -153 0 -158 -12z"/>
<path d="M3584 546 c-3 -8 -4 -27 -2 -43 l3 -28 155 0 155 0 0 40 0 40 -153 3
c-125 2 -153 0 -158 -12z"/>
<path d="M227 437 c-8 -22 21 -91 48 -114 27 -24 99 -48 115 -38 6 3 10 22 10
40 0 30 -5 37 -35 50 -24 9 -39 24 -46 45 -10 26 -16 30 -49 30 -22 0 -40 -5
-43 -13z"/>
<path d="M3067 437 c-8 -22 21 -91 48 -114 27 -24 99 -48 115 -38 6 3 10 22
10 40 0 30 -5 37 -35 50 -24 9 -39 24 -46 45 -10 26 -16 30 -49 30 -22 0 -40
-5 -43 -13z"/>
<path d="M747 363 c-11 -11 -8 -58 5 -71 13 -13 291 -18 322 -6 11 4 16 19 16
45 l0 39 -168 0 c-93 0 -172 -3 -175 -7z"/>
<path d="M1354 356 c-3 -8 -4 -25 -2 -38 3 -22 7 -23 96 -26 l92 -3 0 41 0 40
-90 0 c-69 0 -92 -3 -96 -14z"/>
<path d="M1790 330 l0 -40 89 0 c81 0 90 2 96 20 3 11 3 29 0 40 -6 18 -15 20
-96 20 l-89 0 0 -40z"/>
<path d="M2097 363 c-11 -11 -8 -58 5 -71 13 -13 291 -18 322 -6 11 4 16 19
16 45 l0 39 -168 0 c-93 0 -172 -3 -175 -7z"/>
<path d="M3587 363 c-12 -12 -7 -60 7 -72 9 -8 63 -11 167 -9 l154 3 3 43 3
42 -164 0 c-90 0 -167 -3 -170 -7z"/>
</g>
</svg>
